<svg width="24" height="24" viewBox="0 0 24 24" fill="none" xmlns="http://www.w3.org/2000/svg">
<path d="M8.41941 22.1105C8.51093 22.2098 8.55959 22.3411 8.55483 22.476C8.55007 22.6109 8.49226 22.7385 8.39397 22.831L7.28891 23.8643C7.19017 23.9559 7.05917 24.0045 6.9246 23.9997C6.79004 23.9948 6.66289 23.9368 6.57102 23.8384L0.135502 16.9027C0.0440488 16.8034 -0.0045263 16.6721 0.00033234 16.5372C0.00519098 16.4023 0.0630907 16.2747 0.161449 16.1823L1.26804 15.1505C1.36678 15.0589 1.49778 15.0103 1.63234 15.0151C1.76691 15.02 1.89405 15.078 1.98592 15.1764L8.41941 22.1105ZM16.6311 9.06042C16.7225 9.15971 16.7711 9.29107 16.7662 9.42597C16.7614 9.56087 16.7035 9.6884 16.6051 9.78085L9.65014 16.2779C9.5514 16.3695 9.4204 16.4182 9.28584 16.4133C9.15128 16.4084 9.02413 16.3504 8.93226 16.252L7.27212 14.4606C7.18066 14.3613 7.13209 14.2299 7.13695 14.095C7.14181 13.9601 7.19971 13.8326 7.29807 13.7402L14.2515 7.24307C14.3003 7.19763 14.3576 7.16225 14.42 7.13896C14.4825 7.11567 14.549 7.10492 14.6156 7.10733C14.6822 7.10974 14.7477 7.12526 14.8083 7.15301C14.869 7.18075 14.9235 7.22017 14.9689 7.26902L16.6311 9.06042ZM10.7857 19.8989C10.976 20.1039 10.9643 20.428 10.7598 20.6193L9.65319 21.6521C9.55446 21.7437 9.42345 21.7924 9.28889 21.7875C9.15433 21.7826 9.02718 21.7246 8.93531 21.6262L2.50335 14.6905C2.41183 14.5913 2.36317 14.46 2.36793 14.3251C2.37269 14.1902 2.4305 14.0626 2.52879 13.9701L3.63334 12.9378C3.73208 12.8463 3.86309 12.7976 3.99765 12.8024C4.13221 12.8073 4.25936 12.8653 4.35123 12.9638L10.7857 19.8989ZM21.5021 9.30921C21.5935 9.40857 21.642 9.53997 21.637 9.67487C21.6321 9.80977 21.5741 9.93726 21.4756 10.0296L20.3696 11.0625C20.2709 11.1542 20.1398 11.2031 20.0051 11.1983C19.8704 11.1936 19.7431 11.1355 19.6512 11.037L13.2182 4.1029C13.1266 4.00374 13.0778 3.87239 13.0826 3.73745C13.0873 3.60251 13.1452 3.47492 13.2436 3.38247L14.3528 2.34711C14.4016 2.30167 14.4588 2.26629 14.5213 2.243C14.5838 2.21971 14.6502 2.20896 14.7168 2.21137C14.7835 2.21378 14.849 2.2293 14.9096 2.25705C14.9702 2.28479 15.0248 2.32421 15.0701 2.37306L21.5021 9.30921ZM23.8649 7.10112C23.9561 7.20061 24.0045 7.33201 23.9997 7.46691C23.9948 7.60181 23.9371 7.72939 23.8389 7.82206L22.7349 8.85437C22.6861 8.89984 22.6289 8.93526 22.5664 8.95859C22.504 8.98193 22.4375 8.99272 22.3709 8.99036C22.3043 8.988 22.2388 8.97252 22.1781 8.94482C22.1175 8.91712 22.0629 8.87774 22.0175 8.82893L15.5855 1.89176C15.4942 1.79233 15.4457 1.66098 15.4505 1.52607C15.4552 1.39117 15.5129 1.26356 15.611 1.17082L16.716 0.136477C16.7647 0.0909572 16.8219 0.0554971 16.8843 0.0321316C16.9467 0.0087661 17.0131 -0.00204506 17.0798 0.000318457C17.1464 0.00268197 17.2118 0.0181736 17.2724 0.0459046C17.333 0.0736356 17.3876 0.11306 17.4329 0.161916L23.8649 7.10112Z" fill="black"/>
</svg>
